<svg xmlns="http://www.w3.org/2000/svg" viewBox="0 0 100 100">
  <defs>
    <linearGradient id="wrap" x1="0" y1="0" x2="1" y2="1">
      <stop offset="0" stop-color="#ffe8f2"/>
      <stop offset="1" stop-color="#f9a8c7"/>
    </linearGradient>
    <linearGradient id="candy" x1=".12" y1=".1" x2=".9" y2=".92">
      <stop offset="0" stop-color="#f2cbff"/>
      <stop offset=".5" stop-color="#ba53f2"/>
      <stop offset="1" stop-color="#7d27ba"/>
    </linearGradient>
    <filter id="ds" x="-40%" y="-40%" width="180%" height="180%">
      <feDropShadow dx="0" dy="4.4" stdDeviation="3.4" flood-color="#000" flood-opacity=".28"/>
    </filter>
  </defs>
  <g filter="url(#ds)">
    <rect x="20" y="20" width="60" height="60" rx="10" fill="url(#wrap)" opacity=".92"/>
    <rect x="24" y="24" width="52" height="52" rx="8" fill="#fff" opacity=".14"/>
    <rect x="20" y="22" width="5" height="56" rx="2.5" fill="#ffd1e5"/>
    <rect x="75" y="22" width="5" height="56" rx="2.5" fill="#ffd1e5"/>
    <path d="M20 30l4-2v4zM20 38l4-2v4zM20 46l4-2v4zM20 54l4-2v4zM20 62l4-2v4zM20 70l4-2v4z" fill="#ffc0da"/>
    <path d="M80 30l-4-2v4zM80 38l-4-2v4zM80 46l-4-2v4zM80 54l-4-2v4zM80 62l-4-2v4zM80 70l-4-2v4z" fill="#ffc0da"/>
    <rect x="20" y="44" width="60" height="12" fill="#fff" opacity=".08"/>
    <rect x="20" y="20" width="60" height="60" rx="10" fill="none" stroke="#ffd6e8" stroke-width="2" opacity=".9"/>
    <g transform="translate(0 1)"><circle cx="50" cy="51" r="7.8" fill="url(#candy)"/><circle cx="43" cy="47" r="5.4" fill="url(#candy)"/><circle cx="57" cy="47" r="5.4" fill="url(#candy)"/><circle cx="46" cy="58" r="5.4" fill="url(#candy)"/><circle cx="54" cy="58" r="5.4" fill="url(#candy)"/><circle cx="45" cy="45" r="2.2" fill="#fff" opacity=".45"/></g>
  </g>
</svg>

