<svg xmlns="http://www.w3.org/2000/svg" viewBox="0 0 100 100">
  <defs>
    <radialGradient id="choco" cx="34%" cy="24%" r="80%">
      <stop offset="0" stop-color="#9a6746"/>
      <stop offset="0.42" stop-color="#5c3524"/>
      <stop offset="1" stop-color="#2b180f"/>
    </radialGradient>
    <radialGradient id="shine" cx="34%" cy="23%" r="58%">
      <stop offset="0" stop-color="#fff" stop-opacity="0.56"/>
      <stop offset="1" stop-color="#fff" stop-opacity="0"/>
    </radialGradient>
    <radialGradient id="coreGlow" cx="50%" cy="50%" r="56%">
      <stop offset="0" stop-color="#fff8b3" stop-opacity="0.45"/>
      <stop offset="1" stop-color="#fff8b3" stop-opacity="0"/>
    </radialGradient>
    <filter id="ds" x="-35%" y="-35%" width="170%" height="170%">
      <feDropShadow dx="0" dy="5" stdDeviation="4" flood-color="#000" flood-opacity="0.36"/>
    </filter>
  </defs>

  <g filter="url(#ds)">
    <circle cx="50" cy="50" r="31" fill="url(#choco)"/>
    <circle cx="50" cy="50" r="31" fill="url(#shine)"/>
    <circle cx="50" cy="50" r="31" fill="url(#coreGlow)"/>
    <ellipse cx="39" cy="35" rx="10" ry="7" fill="#fff" opacity="0.25"/>

    <circle cx="25" cy="43" r="3.7" fill="#ff5b5b"/>
    <circle cx="31" cy="31" r="3.3" fill="#ffffff"/>
    <circle cx="43" cy="26" r="3.2" fill="#5ecbff"/>
    <circle cx="56" cy="24" r="3.4" fill="#ffe165"/>
    <circle cx="69" cy="29" r="3.3" fill="#73e66d"/>
    <circle cx="76" cy="41" r="3.5" fill="#ffa14d"/>
    <circle cx="78" cy="55" r="3.5" fill="#f17bff"/>
    <circle cx="72" cy="68" r="3.3" fill="#55c9ff"/>
    <circle cx="59" cy="76" r="3.3" fill="#ffffff"/>
    <circle cx="46" cy="77" r="3.2" fill="#ff5b5b"/>
    <circle cx="33" cy="73" r="3.2" fill="#ffe165"/>
    <circle cx="24" cy="62" r="3.3" fill="#73e66d"/>
    <circle cx="21" cy="50" r="3.1" fill="#f17bff"/>

    <circle cx="40" cy="44" r="2.5" fill="#ffffff" opacity="0.96"/>
    <circle cx="49" cy="52" r="2.4" fill="#ffe165"/>
    <circle cx="57" cy="46" r="2.3" fill="#5ecbff"/>
    <circle cx="63" cy="58" r="2.3" fill="#ff5b5b"/>
    <circle cx="49" cy="64" r="2.2" fill="#73e66d"/>
    <circle cx="38" cy="57" r="2.2" fill="#f17bff"/>
  </g>
</svg>
